mtllib decomp.mtl
o wall000
usemtl Material000
v 0.200678006 0.065772240 -3.222839759
v 0.200678006 -3.354384239 -3.222839759
v 0.200678006 0.065772240 -3.969496965
v -0.200678006 0.065772240 -3.969496965
v -0.200678006 0.065772240 -3.222839759
v -0.200678006 -3.354384239 -3.969496965
v 0.200678006 -3.354384239 -3.969496965
v -0.200678006 -3.354384239 -3.222839759
f 1 2 3
f 1 3 4
f 5 2 1
f 5 1 4
f 6 4 3
f 6 5 4
f 7 6 3
f 7 3 2
f 7 2 6
f 8 6 2
f 8 2 5
f 8 5 6
o wall001
usemtl Material001
v 0.200678006 -3.354384239 0.197316720
v 0.200678006 -6.840312958 0.197316720
v 0.200678006 -3.354384239 -3.222839759
v -0.200678006 -3.354384239 -3.222839759
v -0.200678006 -3.354384239 0.197316720
v -0.200678006 -6.840312958 -3.222839759
v 0.200678006 -6.840312958 -3.222839759
v -0.200678006 -6.840312958 0.197316720
f 9 10 11
f 13 10 9
f 13 9 11
f 13 11 12
f 14 13 12
f 15 11 10
f 15 10 14
f 15 14 12
f 15 12 11
f 16 14 10
f 16 10 13
f 16 13 14
o wall002
usemtl Material002
v 0.200678006 6.840312958 -3.222839759
v 0.200678006 3.617473199 -3.222839759
v 0.200678006 6.840312958 -6.840312958
v -0.200678006 6.840312958 -6.840312958
v -0.200678006 3.617473199 -3.222839759
v -0.200678006 3.617473199 -6.840312958
v -0.200678006 6.840312958 -3.222839759
v 0.200678006 3.617473199 -6.840312958
f 17 18 19
f 17 19 20
f 21 18 17
f 22 20 19
f 22 21 20
f 22 18 21
f 23 21 17
f 23 17 20
f 23 20 21
f 24 22 19
f 24 19 18
f 24 18 22
o wall003
usemtl Material003
v -0.266450246 3.617473199 -1.907394959
v 0.200678006 0.065772240 -2.021457911
v 0.200678006 3.617473199 -2.021457911
v -0.200678006 3.617473199 -3.222839759
v -0.200678006 0.065772240 -3.222839759
v 0.200678006 3.617473199 -3.222839759
v -0.266450246 0.065772240 -1.907394959
v 0.200678006 0.065772240 -3.222839759
f 25 26 27
f 25 27 28
f 29 25 28
f 30 27 26
f 30 28 27
f 30 29 28
f 31 29 26
f 31 26 25
f 31 25 29
f 32 30 26
f 32 26 29
f 32 29 30
o wall004
usemtl Material004
v 0.200678006 -3.354384239 3.617473199
v 0.200678006 -6.840312958 3.617473199
v 0.200678006 -6.840312958 0.197316720
v -0.200678006 -3.354384239 0.197316720
v -0.200678006 -3.354384239 3.617473199
v -0.200678006 -6.840312958 0.197316720
v 0.200678006 -3.354384239 0.197316720
v -0.200678006 -6.840312958 3.617473199
f 33 34 35
f 37 34 33
f 37 33 36
f 38 35 34
f 38 37 36
f 39 33 35
f 39 36 33
f 39 38 36
f 39 35 38
f 40 38 34
f 40 34 37
f 40 37 38
o wall005
usemtl Material005
v 0.200678006 -0.649251997 2.433572879
v 0.200678006 -3.354384239 2.433572879
v 0.200678006 -0.649251997 0.197316720
v -0.200678006 -0.649251997 0.197316720
v -0.200678006 -3.354384239 2.433572879
v 0.200678006 -3.354384239 0.197316720
v -0.200678006 -0.649251997 2.433572879
v -0.200678006 -3.354384239 0.197316720
f 41 42 43
f 41 43 44
f 45 42 41
f 46 43 42
f 46 44 43
f 46 42 45
f 47 45 41
f 47 41 44
f 47 44 45
f 48 46 45
f 48 45 44
f 48 44 46
o wall006
usemtl Material006
v 0.200678006 0.065772240 4.439278126
v 0.200678006 -3.354384239 4.439278126
v 0.200678006 -0.649251997 2.433572879
v -0.200678006 -0.649251997 2.433572879
v -0.200678006 0.065772240 4.439278126
v -0.200678006 -3.354384239 2.433572879
v 0.200678006 0.065772240 2.597712994
v 0.200678006 -3.354384239 2.433572879
v -0.200678006 -3.354384239 4.439278126
v -0.200678006 0.065772240 2.597712994
f 49 50 51
f 53 50 49
f 54 53 52
f 55 49 51
f 55 51 52
f 55 53 49
f 56 51 50
f 56 50 54
f 56 54 52
f 56 52 51
f 57 54 50
f 57 50 53
f 57 53 54
f 58 55 52
f 58 52 53
f 58 53 55
o wall007
usemtl Material007
v 0.200678006 3.617473199 6.840312958
v 0.200678006 1.804700971 6.840312958
v 0.200678006 3.617473199 4.801373518
v -0.200678006 3.617473199 4.801373518
v -0.200678006 3.617473199 6.840312958
v -0.200678006 1.804700971 4.801373518
v 0.200678006 1.804700971 4.801373518
v -0.200678006 1.804700971 6.840312958
f 59 60 61
f 59 61 62
f 63 60 59
f 63 59 62
f 64 62 61
f 64 63 62
f 65 64 61
f 65 61 60
f 65 60 64
f 66 64 60
f 66 60 63
f 66 63 64
o wall008
usemtl Material008
v 0.200678006 6.840312958 6.840312958
v 0.200678006 3.617473199 6.840312958
v 0.200678006 6.840312958 3.617473199
v -0.200678006 6.840312958 3.617473199
v -0.200678006 3.617473199 6.840312958
v -0.200678006 3.617473199 3.617473199
v -0.200678006 6.840312958 6.840312958
v 0.200678006 3.617473199 3.617473199
f 67 68 69
f 67 69 70
f 71 68 67
f 72 70 69
f 72 71 70
f 72 68 71
f 73 71 67
f 73 67 70
f 73 70 71
f 74 72 69
f 74 69 68
f 74 68 72
o wall009
usemtl Material009
v 0.200678006 -4.626715183 -4.932917998
v 0.200678006 -6.840312958 -4.932917998
v 0.200678006 -4.626715183 -6.840312958
v -0.200678006 -4.626715183 -6.840312958
v -0.200678006 -4.626715183 -4.932917998
v -0.200678006 -6.840312958 -6.840312958
v 0.200678006 -6.840312958 -6.840312958
v -0.200678006 -6.840312958 -4.932917998
f 75 76 77
f 75 77 78
f 79 76 75
f 79 75 78
f 80 78 77
f 80 79 78
f 81 80 77
f 81 77 76
f 81 76 80
f 82 80 76
f 82 76 79
f 82 79 80
o wall010
usemtl Material010
v 0.200678006 -1.512761520 0.197316720
v 0.200678006 -3.354384239 0.197316720
v 0.200678006 -1.512761520 -3.222839759
v -0.200678006 -1.512761520 -3.222839759
v -0.200678006 -3.354384239 0.197316720
v -0.200678006 -3.354384239 -3.222839759
v -0.200678006 -1.512761520 0.197316720
v 0.200678006 -3.354384239 -3.222839759
f 83 84 85
f 88 86 85
f 88 87 86
f 88 84 87
f 89 86 87
f 89 83 85
f 89 85 86
f 89 87 84
f 89 84 83
f 90 88 85
f 90 85 84
f 90 84 88
o wall011
usemtl Material011
v 0.200678006 3.617473199 -4.932917998
v 0.259727674 1.775850479 -4.932917998
v 0.259727674 1.775850479 -6.906085198
v -0.200678006 3.617473199 -6.840312958
v -0.266450246 1.775850479 -4.932917998
v 0.200678006 3.617473199 -6.840312958
v -0.200678006 3.617473199 -4.932917998
v -0.266450246 1.775850479 -6.906085198
f 91 92 93
f 95 92 91
f 95 93 92
f 96 91 93
f 96 93 94
f 96 94 91
f 97 95 91
f 97 91 94
f 97 94 95
f 98 95 94
f 98 94 93
f 98 93 95
o wall012
usemtl Material012
v 0.200678006 6.840312958 0.197316720
v 0.200678006 5.880214214 0.197316720
v 0.200678006 6.840312958 -1.381217040
v -0.200678006 6.840312958 -1.381217040
v -0.200678006 5.880214214 0.197316720
v -0.200678006 6.840312958 0.197316720
v -0.200678006 5.880214214 -1.381217040
v 0.200678006 5.880214214 -1.381217040
f 99 100 101
f 99 101 102
f 103 100 99
f 104 103 99
f 104 99 102
f 104 102 103
f 105 100 103
f 105 103 102
f 105 102 101
f 106 105 101
f 106 101 100
f 106 100 105
o wall013
usemtl Material013
v 0.200678006 -5.064462478 6.840312958
v 0.200678006 -6.840312958 6.840312958
v 0.200678006 -5.064462478 3.617473199
v -0.200678006 -5.064462478 3.617473199
v -0.200678006 -6.840312958 6.840312958
v -0.200678006 -5.064462478 6.840312958
v -0.200678006 -6.840312958 3.617473199
v 0.200678006 -6.840312958 3.617473199
f 107 108 109
f 107 109 110
f 111 108 107
f 112 111 107
f 112 107 110
f 112 110 111
f 113 108 111
f 113 111 110
f 113 110 109
f 114 113 109
f 114 109 108
f 114 108 113
o wall014
usemtl Material014
v 0.200678006 3.617473199 4.801373518
v 0.200678006 1.907394959 4.801373518
v 0.200678006 3.617473199 2.597712994
v -0.200678006 3.617473199 2.597712994
v -0.200678006 3.617473199 4.801373518
v -0.200678006 1.907394959 2.597712994
v 0.200678006 1.907394959 2.597712994
v -0.200678006 1.907394959 4.801373518
f 115 116 117
f 115 117 118
f 119 116 115
f 119 115 118
f 120 118 117
f 120 119 118
f 121 120 117
f 121 117 116
f 121 116 120
f 122 120 116
f 122 116 119
f 122 119 120
o wall015
usemtl Material015
v 0.200678006 6.840312958 2.038939439
v 0.200678006 5.880214214 2.038939439
v 0.200678006 6.840312958 0.197316720
v -0.200678006 6.840312958 0.197316720
v -0.200678006 6.774540718 2.038939439
v -0.200678006 5.880214214 0.197316720
v -0.200678006 6.840312958 2.038939439
v 0.200678006 5.880214214 0.197316720
v -0.200678006 5.880214214 2.038939439
f 123 124 125
f 123 125 126
f 127 124 123
f 128 126 125
f 128 127 126
f 129 127 123
f 129 123 126
f 129 126 127
f 130 128 125
f 130 125 124
f 130 124 128
f 131 128 124
f 131 124 127
f 131 127 128
o wall016
usemtl Material016
v 0.200678006 -5.064462478 -3.222839759
v 0.200678006 -6.840312958 -3.222839759
v 0.200678006 -5.064462478 -4.932917998
v -0.200678006 -5.064462478 -4.932917998
v -0.200678006 -6.840312958 -3.222839759
v -0.200678006 -6.840312958 -4.932917998
v -0.200678006 -5.064462478 -3.222839759
v 0.200678006 -6.840312958 -4.932917998
f 132 133 134
f 132 134 135
f 136 133 132
f 137 135 134
f 137 136 135
f 137 133 136
f 138 136 132
f 138 132 135
f 138 135 136
f 139 137 134
f 139 134 133
f 139 133 137
o wall017
usemtl Material017
v 0.200678006 -0.649251997 0.197316720
v 0.200678006 -1.512761520 0.197316720
v 0.200678006 -0.649251997 -1.381217040
v -0.200678006 -0.649251997 -1.381217040
v -0.200678006 -1.512761520 0.197316720
v -0.200678006 -1.512761520 -1.381217040
v -0.200678006 -0.649251997 0.197316720
v 0.200678006 -1.512761520 -1.381217040
f 140 141 142
f 140 142 143
f 144 141 140
f 145 143 142
f 145 144 143
f 145 141 144
f 146 144 140
f 146 140 143
f 146 143 144
f 147 145 142
f 147 142 141
f 147 141 145
o wall018
usemtl Material018
v 0.200678006 3.617473199 -3.222839759
v 0.200678006 1.907394959 -3.222839759
v 0.200678006 3.617473199 -4.932917998
v -0.200678006 3.617473199 -4.932917998
v -0.200678006 1.907394959 -3.222839759
v -0.200678006 1.907394959 -4.932917998
v -0.200678006 3.617473199 -3.222839759
v 0.200678006 1.907394959 -4.932917998
f 148 149 150
f 148 150 151
f 152 149 148
f 153 151 150
f 153 152 151
f 153 149 152
f 154 152 148
f 154 148 151
f 154 151 152
f 155 153 150
f 155 150 149
f 155 149 153
o wall019
usemtl Material019
v -0.266450246 5.327551438 -1.907394959
v 0.200678006 3.617473199 -2.021457911
v 0.200678006 5.327551438 -2.021457911
v -0.200678006 5.327551438 -3.222839759
v -0.200678006 3.617473199 -3.222839759
v 0.200678006 3.617473199 -3.222839759
v -0.266450246 3.617473199 -1.907394959
v 0.200678006 5.327551438 -3.222839759
f 156 157 158
f 156 158 159
f 160 156 159
f 161 158 157
f 161 160 159
f 162 157 156
f 162 156 160
f 162 161 157
f 162 160 161
f 163 161 159
f 163 159 158
f 163 158 161
o wall020
usemtl Material020
v 0.200678006 -4.724764824 6.840312958
v 0.200678006 -5.064462478 6.840312958
v 0.200678006 -4.724764824 5.327551438
v -0.200678006 -4.724764824 5.327551438
v -0.200678006 -5.064462478 6.840312958
v -0.200678006 -5.064462478 5.327551438
v -0.200678006 -4.724764824 6.840312958
v 0.200678006 -5.064462478 5.327551438
f 164 165 166
f 164 166 167
f 168 165 164
f 169 167 166
f 169 168 167
f 169 165 168
f 170 168 164
f 170 164 167
f 170 167 168
f 171 169 166
f 171 166 165
f 171 165 169
o wall021
usemtl Material021
v 0.200678006 1.907394959 3.749017679
v 0.200678006 0.065772240 3.749017679
v 0.200678006 1.907394959 2.597712994
v -0.200678006 1.907394959 2.597712994
v -0.200678006 1.907394959 3.749017679
v -0.200678006 0.065772240 2.597712994
v 0.200678006 0.065772240 2.597712994
v -0.200678006 0.065772240 3.749017679
f 172 173 174
f 176 173 172
f 176 172 174
f 176 174 175
f 177 175 174
f 177 176 175
f 178 177 174
f 178 174 173
f 179 173 176
f 179 176 177
f 179 178 173
f 179 177 178
o wall022
usemtl Material022
v 0.200678006 5.327551438 3.617473199
v 0.200678006 3.617473199 3.617473199
v 0.200678006 5.327551438 2.597712994
v -0.200678006 5.327551438 2.597712994
v -0.200678006 5.327551438 3.617473199
v -0.200678006 3.617473199 2.597712994
v 0.200678006 3.617473199 2.597712994
v -0.200678006 3.617473199 3.617473199
f 180 181 182
f 180 182 183
f 184 181 180
f 184 180 183
f 185 183 182
f 185 184 183
f 186 185 182
f 186 182 181
f 186 181 185
f 187 185 181
f 187 181 184
f 187 184 185
o wall023
usemtl Material023
v 0.200678006 -3.354384239 -3.222839759
v 0.200678006 -4.143651119 -3.222839759
v 0.200678006 -4.143651119 -3.969496965
v -0.200678006 -3.354384239 -3.969496965
v -0.200678006 -3.354384239 -3.222839759
v -0.200678006 -4.143651119 -3.969496965
v 0.200678006 -3.354384239 -3.969496965
v -0.200678006 -4.143651119 -3.222839759
f 188 189 190
f 192 189 188
f 192 188 191
f 193 190 189
f 193 191 190
f 193 192 191
f 194 188 190
f 194 190 191
f 194 191 188
f 195 193 189
f 195 189 192
f 195 192 193
o wall024
usemtl Material024
v 0.200678006 0.065772240 -2.170483919
v 0.200678006 -1.512761520 -2.170483919
v 0.200678006 0.065772240 -3.222839759
v -0.200678006 0.065772240 -3.222839759
v -0.200678006 -1.512761520 -2.170483919
v -0.200678006 -1.512761520 -3.222839759
v -0.200678006 0.065772240 -2.170483919
v 0.200678006 -1.512761520 -3.222839759
f 196 197 198
f 200 197 196
f 201 199 198
f 201 200 199
f 201 197 200
f 202 200 196
f 202 199 200
f 202 196 198
f 202 198 199
f 203 201 198
f 203 198 197
f 203 197 201
o wall025
usemtl Material025
v 0.200678006 1.118128080 -3.222839759
v 0.200678006 0.065772240 -3.222839759
v 0.200678006 1.118128080 -3.969496965
v -0.200678006 1.118128080 -3.969496965
v -0.200678006 1.118128080 -3.222839759
v -0.200678006 0.065772240 -3.969496965
v 0.200678006 0.065772240 -3.969496965
v -0.200678006 0.065772240 -3.222839759
f 204 205 206
f 204 206 207
f 208 205 204
f 208 204 207
f 209 207 206
f 209 208 207
f 210 209 206
f 210 206 205
f 211 205 208
f 211 208 209
f 211 210 205
f 211 209 210
o wall026
usemtl Material026
v 0.200678006 6.840312958 -2.170483919
v 0.200678006 5.327551438 -2.170483919
v 0.200678006 6.840312958 -3.222839759
v -0.200678006 6.840312958 -3.222839759
v -0.200678006 6.840312958 -2.170483919
v -0.200678006 5.327551438 -3.222839759
v 0.200678006 5.327551438 -3.222839759
v -0.200678006 5.327551438 -2.170483919
f 212 213 214
f 212 214 215
f 216 213 212
f 216 212 215
f 217 215 214
f 217 216 215
f 218 217 214
f 218 214 213
f 219 213 216
f 219 216 217
f 219 218 213
f 219 217 218
o wall027
usemtl Material027
v 0.200678006 -3.354384239 4.439278126
v 0.200678006 -4.143651119 4.439278126
v 0.200678006 -3.354384239 3.617473199
v -0.200678006 -3.354384239 3.617473199
v -0.200678006 -3.354384239 4.439278126
v -0.200678006 -4.143651119 3.617473199
v 0.200678006 -4.143651119 3.617473199
v -0.200678006 -4.143651119 4.439278126
f 220 221 222
f 224 221 220
f 224 220 222
f 224 222 223
f 225 223 222
f 225 224 223
f 226 225 222
f 226 222 221
f 226 221 225
f 227 225 221
f 227 221 224
f 227 224 225
o wall028
usemtl Material028
v 0.200678006 1.118128080 4.439278126
v 0.200678006 0.065772240 4.439278126
v 0.200678006 1.118128080 3.749017679
v -0.200678006 1.118128080 3.749017679
v -0.200678006 1.118128080 4.439278126
v -0.200678006 0.065772240 3.749017679
v 0.200678006 0.065772240 3.749017679
v -0.200678006 0.065772240 4.439278126
f 228 229 230
f 232 229 228
f 232 228 230
f 232 230 231
f 233 231 230
f 233 232 231
f 234 233 230
f 234 230 229
f 234 229 233
f 235 233 229
f 235 229 232
f 235 232 233
o wall029
usemtl Material029
v 0.200678006 6.840312958 3.617473199
v 0.200678006 6.248362798 3.617473199
v 0.200678006 6.840312958 2.038939439
v -0.200678006 6.840312958 2.038939439
v -0.200678006 6.248362798 3.617473199
v -0.200678006 6.248362798 2.038939439
v -0.200678006 6.840312958 3.617473199
v 0.200678006 6.248362798 2.038939439
f 236 237 238
f 236 238 239
f 240 237 236
f 241 240 239
f 241 237 240
f 242 240 236
f 242 236 239
f 242 239 240
f 243 238 237
f 243 237 241
f 243 241 239
f 243 239 238
o wall030
usemtl Material030
v 0.200678006 -4.538284559 -3.969496965
v 0.200678006 -5.064462478 -4.012106639
v 0.200678006 -4.626715183 -4.932917998
v -0.200678006 -4.626715183 -4.932917998
v -0.200678006 -4.538284559 -3.969496965
v -0.200678006 -5.064462478 -4.932917998
v 0.200678006 -5.064462478 -4.932917998
v -0.200678006 -5.064462478 -4.012106639
f 244 245 246
f 244 246 247
f 248 245 244
f 248 244 247
f 249 247 246
f 249 248 247
f 250 249 246
f 250 246 245
f 250 245 249
f 251 249 245
f 251 245 248
f 251 248 249
o wall031
usemtl Material031
v 0.200678006 -4.143651119 -3.222839759
v 0.200678006 -5.064462478 -3.222839759
v 0.200678006 -5.064462478 -4.012106639
v -0.200678006 -4.143651119 -3.969496965
v -0.200678006 -4.143651119 -3.222839759
v 0.200678006 -4.143651119 -3.969496965
v -0.200678006 -5.064462478 -4.012106639
v -0.200678006 -5.064462478 -3.222839759
f 252 253 254
f 256 252 255
f 257 252 254
f 257 254 255
f 257 255 252
f 258 256 255
f 258 255 254
f 259 256 258
f 259 253 252
f 259 252 256
f 259 258 254
f 259 254 253
o wall032
usemtl Material032
v 0.200678006 -0.649251997 -1.381217040
v 0.200678006 -1.512761520 -1.381217040
v 0.200678006 -1.512761520 -2.170483919
v -0.200678006 -0.591950160 -2.170483919
v -0.200678006 -0.649251997 -1.381217040
v 0.200678006 -0.591950160 -2.170483919
v -0.200678006 -1.512761520 -2.170483919
v -0.200678006 -1.512761520 -1.381217040
f 260 261 262
f 264 261 260
f 264 260 263
f 265 260 262
f 265 262 263
f 265 263 260
f 266 262 261
f 266 264 263
f 266 263 262
f 267 266 261
f 267 261 264
f 267 264 266
o wall033
usemtl Material033
v -0.266450246 0.065772240 -1.907394959
v 0.200678006 -0.649251997 -1.907394959
v 0.200678006 0.065772240 -2.021457911
v -0.200678006 0.065772240 -2.170483919
v -0.200678006 -0.591950160 -2.170483919
v -0.200678006 -0.649251997 -1.907394959
v 0.200678006 -0.591950160 -2.170483919
v 0.200678006 0.065772240 -2.170483919
f 268 269 270
f 268 270 271
f 272 268 271
f 273 272 269
f 273 269 268
f 273 268 272
f 274 270 269
f 274 269 272
f 274 272 271
f 275 274 271
f 275 271 270
f 275 270 274
o wall034
usemtl Material034
v 0.200678006 1.775850479 -3.969496965
v 0.200678006 1.907394959 -4.012106639
v -0.200678006 1.907394959 -4.012106639
v -0.200678006 1.907394959 -4.932917998
v 0.259727674 1.775850479 -4.932917998
v -0.266450246 1.775850479 -4.932917998
v 0.200678006 1.907394959 -4.932917998
v -0.200678006 1.775850479 -3.969496965
f 276 277 278
f 280 277 276
f 281 278 279
f 281 280 276
f 281 279 280
f 282 280 279
f 282 277 280
f 282 278 277
f 282 279 278
f 283 281 276
f 283 276 278
f 283 278 281
o wall035
usemtl Material035
v 0.200678006 1.907394959 -3.222839759
v 0.200678006 1.118128080 -3.222839759
v 0.200678006 1.907394959 -4.012106639
v -0.200678006 1.907394959 -4.012106639
v -0.200678006 1.118128080 -3.222839759
v -0.200678006 1.907394959 -3.222839759
v -0.200678006 1.118128080 -3.969496965
v 0.200678006 1.118128080 -3.969496965
f 284 285 286
f 284 286 287
f 288 285 284
f 289 288 284
f 289 284 287
f 289 287 288
f 290 285 288
f 290 288 287
f 290 287 286
f 291 290 286
f 291 286 285
f 291 285 290
o wall036
usemtl Material036
v 0.200678006 6.840312958 -1.381217040
v 0.200678006 6.248362798 -1.381217040
v 0.200678006 6.248362798 -2.170483919
v -0.200678006 6.840312958 -2.170483919
v -0.200678006 6.840312958 -1.381217040
v 0.200678006 6.840312958 -2.170483919
v -0.200678006 6.248362798 -2.170483919
v -0.200678006 6.248362798 -1.381217040
f 292 293 294
f 296 293 292
f 296 292 295
f 297 292 294
f 297 295 292
f 298 294 293
f 298 296 295
f 298 297 294
f 298 295 297
f 299 298 293
f 299 293 296
f 299 296 298
o wall037
usemtl Material037
v 0.200678006 -4.143651119 4.439278126
v 0.200678006 -5.064462478 4.538284559
v 0.200678006 -5.064462478 3.617473199
v -0.200678006 -4.143651119 3.617473199
v -0.200678006 -4.143651119 4.439278126
v 0.200678006 -4.143651119 3.617473199
v -0.200678006 -5.064462478 4.538284559
v -0.200678006 -5.064462478 3.617473199
f 300 301 302
f 304 301 300
f 304 300 303
f 305 300 302
f 305 302 303
f 305 303 300
f 306 302 301
f 306 301 304
f 306 304 303
f 307 306 303
f 307 303 302
f 307 302 306
o wall038
usemtl Material038
v 0.200678006 -4.724764824 5.327551438
v 0.200678006 -5.064462478 5.327551438
v 0.200678006 -4.724764824 4.538284559
v -0.200678006 -4.724764824 4.538284559
v -0.200678006 -4.724764824 5.327551438
v -0.200678006 -5.064462478 4.538284559
v 0.200678006 -5.064462478 4.538284559
v -0.200678006 -5.064462478 5.327551438
f 308 309 310
f 308 310 311
f 312 309 308
f 312 308 311
f 313 311 310
f 313 312 311
f 314 313 310
f 314 310 309
f 314 309 313
f 315 313 309
f 315 309 312
f 315 312 313
o wall039
usemtl Material039
v 0.200678006 1.907394959 4.406740079
v 0.200678006 1.118128080 4.406740079
v 0.200678006 1.907394959 3.749017679
v -0.200678006 1.907394959 3.749017679
v -0.200678006 1.907394959 4.406740079
v -0.200678006 1.118128080 3.749017679
v 0.200678006 1.118128080 3.749017679
v -0.200678006 1.118128080 4.406740079
f 316 317 318
f 316 318 319
f 320 317 316
f 320 316 319
f 321 319 318
f 321 320 319
f 322 321 318
f 322 318 317
f 322 317 321
f 323 321 317
f 323 317 320
f 323 320 321
o wall040
usemtl Material040
v 0.200678006 6.248362798 3.617473199
v 0.200678006 5.327551438 3.617473199
v 0.200678006 5.327551438 2.959750799
v -0.200678006 6.248362798 2.959750799
v -0.200678006 6.248362798 3.617473199
v 0.200678006 6.248362798 2.959750799
v -0.200678006 5.327551438 2.959750799
v -0.200678006 5.327551438 3.617473199
f 324 325 326
f 328 325 324
f 328 324 327
f 329 324 326
f 329 327 324
f 330 326 325
f 330 328 327
f 330 329 326
f 330 327 329
f 331 330 325
f 331 325 328
f 331 328 330
o wall041
usemtl Material041
v 0.200678006 5.880214214 -1.907394959
v 0.200678006 5.327551438 -2.021457911
v 0.200678006 5.853729358 -2.170483919
v -0.200678006 5.853729358 -2.170483919
v -0.266450246 5.327551438 -1.907394959
v -0.200678006 5.327551438 -2.170483919
v -0.200678006 5.880214214 -1.907394959
v 0.200678006 5.327551438 -2.170483919
f 332 333 334
f 332 334 335
f 336 333 332
f 337 335 334
f 337 336 335
f 338 336 332
f 338 332 335
f 338 335 336
f 339 337 334
f 339 334 333
f 339 333 336
f 339 336 337
o wall042
usemtl Material042
v 0.200678006 6.248362798 -1.381217040
v 0.200678006 5.880214214 -1.381217040
v 0.200678006 6.116818318 -2.170483919
v -0.200678006 6.248362798 -2.170483919
v -0.200678006 5.880214214 -1.381217040
v 0.200678006 6.248362798 -2.170483919
v -0.200678006 6.248362798 -1.381217040
v -0.200678006 5.853729358 -2.170483919
v 0.200678006 5.853729358 -2.170483919
f 340 341 342
f 344 341 340
f 345 340 342
f 345 342 343
f 346 344 340
f 346 343 344
f 346 345 343
f 346 340 345
f 347 341 344
f 347 344 343
f 347 343 342
f 348 347 342
f 348 342 341
f 348 341 347
o wall043
usemtl Material043
v 0.200678006 1.644305999 4.439278126
v 0.200678006 1.118128080 4.439278126
v 0.200678006 1.644305999 4.406740079
v -0.200678006 1.644305999 4.406740079
v -0.200678006 1.644305999 4.439278126
v -0.200678006 1.118128080 4.406740079
v 0.200678006 1.118128080 4.406740079
v -0.200678006 1.118128080 4.439278126
f 349 350 351
f 353 350 349
f 353 349 351
f 353 351 352
f 354 352 351
f 354 353 352
f 355 354 351
f 355 351 350
f 356 350 353
f 356 353 354
f 356 355 350
f 356 354 355
o wall044
usemtl Material044
v 0.200678006 5.853729358 2.959750799
v 0.200678006 5.327551438 2.959750799
v 0.200678006 5.880214214 2.565117359
v -0.200678006 5.880214214 2.565117359
v -0.200678006 5.327551438 2.959750799
v -0.200678006 5.327551438 2.597712994
v -0.200678006 5.853729358 2.959750799
v 0.200678006 5.327551438 2.597712994
f 357 358 359
f 357 359 360
f 361 358 357
f 362 360 359
f 362 361 360
f 362 358 361
f 363 361 357
f 363 357 360
f 363 360 361
f 364 362 359
f 364 359 358
f 364 358 362
o wall045
usemtl Material045
v 0.200678006 6.248362798 2.959750799
v 0.200678006 5.853729358 2.959750799
v 0.200678006 5.880214214 2.038939439
v -0.200678006 6.248362798 2.038939439
v -0.200678006 6.248362798 2.959750799
v -0.200678006 5.853729358 2.959750799
v 0.200678006 6.248362798 2.038939439
v -0.200678006 5.880214214 2.038939439
f 365 366 367
f 369 366 365
f 370 367 366
f 370 369 368
f 370 366 369
f 371 365 367
f 371 369 365
f 371 368 369
f 372 370 368
f 372 367 370
f 372 371 367
f 372 368 371
o wall046
usemtl Material046
v 0.200678006 1.907394959 4.801373518
v 0.128183194 1.804700971 4.801373518
v 0.128183194 1.644305999 4.439278126
v -0.200678006 1.907394959 4.406740079
v -0.200678006 1.907394959 4.801373518
v 0.200678006 1.907394959 4.406740079
v -0.200678006 1.804700971 4.801373518
v -0.200678006 1.644305999 4.406740079
v -0.200678006 1.644305999 4.439278126
f 373 374 375
f 377 374 373
f 377 373 376
f 378 373 375
f 378 376 373
f 379 375 374
f 379 374 377
f 379 377 376
f 380 378 375
f 380 376 378
f 380 379 376
f 381 380 375
f 381 375 379
f 381 379 380
o wall047
usemtl Material047
v 0.200678006 1.907394959 4.801373518
v 0.200678006 1.804700971 4.801373518
v 0.200678006 1.907394959 4.406740079
v 0.128183194 1.804700971 4.801373518
v 0.200678006 1.644305999 4.406740079
v 0.200678006 1.644305999 4.439278126
v 0.128183194 1.644305999 4.439278126
f 382 383 384
f 382 384 385
f 383 382 385
f 386 384 383
f 387 386 383
f 387 383 385
f 388 385 384
f 388 384 386
f 388 387 385
f 388 386 387
